<svg width="188" height="53" viewBox="0 0 188 53" fill="none" xmlns="http://www.w3.org/2000/svg">
<path d="M83.616 18.556L79.59 34H75.036L72.572 23.836L70.02 34H65.466L61.55 18.556H65.576L67.798 29.798L70.548 18.556H74.684L77.324 29.798L79.568 18.556H83.616ZM97.0747 27.664C97.0747 28.016 97.0527 28.3827 97.0087 28.764H88.4947C88.5533 29.5267 88.7953 30.1133 89.2207 30.524C89.6607 30.92 90.196 31.118 90.8267 31.118C91.7653 31.118 92.418 30.722 92.7847 29.93H96.7887C96.5833 30.7367 96.2093 31.4627 95.6667 32.108C95.1387 32.7533 94.4713 33.2593 93.6647 33.626C92.858 33.9927 91.956 34.176 90.9587 34.176C89.756 34.176 88.6853 33.9193 87.7467 33.406C86.808 32.8927 86.0747 32.1593 85.5467 31.206C85.0187 30.2527 84.7547 29.138 84.7547 27.862C84.7547 26.586 85.0113 25.4713 85.5247 24.518C86.0527 23.5647 86.786 22.8313 87.7247 22.318C88.6633 21.8047 89.7413 21.548 90.9587 21.548C92.1467 21.548 93.2027 21.7973 94.1267 22.296C95.0507 22.7947 95.7693 23.506 96.2827 24.43C96.8107 25.354 97.0747 26.432 97.0747 27.664ZM93.2247 26.674C93.2247 26.0287 93.0047 25.5153 92.5647 25.134C92.1247 24.7527 91.5747 24.562 90.9147 24.562C90.284 24.562 89.7487 24.7453 89.3087 25.112C88.8833 25.4787 88.6193 25.9993 88.5167 26.674H93.2247ZM109.113 18.556V21.57H102.821V24.826H107.529V27.752H102.821V34H99.0593V18.556H109.113ZM112.983 20.448C112.323 20.448 111.78 20.2573 111.355 19.876C110.944 19.48 110.739 18.996 110.739 18.424C110.739 17.8373 110.944 17.3533 111.355 16.972C111.78 16.576 112.323 16.378 112.983 16.378C113.628 16.378 114.156 16.576 114.567 16.972C114.992 17.3533 115.205 17.8373 115.205 18.424C115.205 18.996 114.992 19.48 114.567 19.876C114.156 20.2573 113.628 20.448 112.983 20.448ZM114.853 21.724V34H111.091V21.724H114.853ZM125.059 21.592C126.496 21.592 127.64 22.0613 128.491 23C129.356 23.924 129.789 25.2 129.789 26.828V34H126.049V27.334C126.049 26.5127 125.836 25.8747 125.411 25.42C124.986 24.9653 124.414 24.738 123.695 24.738C122.976 24.738 122.404 24.9653 121.979 25.42C121.554 25.8747 121.341 26.5127 121.341 27.334V34H117.579V21.724H121.341V23.352C121.722 22.8093 122.236 22.384 122.881 22.076C123.526 21.7533 124.252 21.592 125.059 21.592ZM131.655 27.84C131.655 26.5787 131.89 25.4713 132.359 24.518C132.843 23.5647 133.496 22.8313 134.317 22.318C135.138 21.8047 136.055 21.548 137.067 21.548C137.932 21.548 138.688 21.724 139.333 22.076C139.993 22.428 140.499 22.89 140.851 23.462V21.724H144.613V34H140.851V32.262C140.484 32.834 139.971 33.296 139.311 33.648C138.666 34 137.91 34.176 137.045 34.176C136.048 34.176 135.138 33.9193 134.317 33.406C133.496 32.878 132.843 32.1373 132.359 31.184C131.89 30.216 131.655 29.1013 131.655 27.84ZM140.851 27.862C140.851 26.9233 140.587 26.1827 140.059 25.64C139.546 25.0973 138.915 24.826 138.167 24.826C137.419 24.826 136.781 25.0973 136.253 25.64C135.74 26.168 135.483 26.9013 135.483 27.84C135.483 28.7787 135.74 29.5267 136.253 30.084C136.781 30.6267 137.419 30.898 138.167 30.898C138.915 30.898 139.546 30.6267 140.059 30.084C140.587 29.5413 140.851 28.8007 140.851 27.862ZM154.815 21.592C156.252 21.592 157.396 22.0613 158.247 23C159.112 23.924 159.545 25.2 159.545 26.828V34H155.805V27.334C155.805 26.5127 155.592 25.8747 155.167 25.42C154.741 24.9653 154.169 24.738 153.451 24.738C152.732 24.738 152.16 24.9653 151.735 25.42C151.309 25.8747 151.097 26.5127 151.097 27.334V34H147.335V21.724H151.097V23.352C151.478 22.8093 151.991 22.384 152.637 22.076C153.282 21.7533 154.008 21.592 154.815 21.592ZM161.411 27.862C161.411 26.586 161.668 25.4713 162.181 24.518C162.709 23.5647 163.435 22.8313 164.359 22.318C165.298 21.8047 166.368 21.548 167.571 21.548C169.111 21.548 170.394 21.9513 171.421 22.758C172.462 23.5647 173.144 24.7013 173.467 26.168H169.463C169.126 25.2293 168.473 24.76 167.505 24.76C166.816 24.76 166.266 25.0313 165.855 25.574C165.444 26.102 165.239 26.8647 165.239 27.862C165.239 28.8593 165.444 29.6293 165.855 30.172C166.266 30.7 166.816 30.964 167.505 30.964C168.473 30.964 169.126 30.4947 169.463 29.556H173.467C173.144 30.9933 172.462 32.1227 171.421 32.944C170.38 33.7653 169.096 34.176 167.571 34.176C166.368 34.176 165.298 33.9193 164.359 33.406C163.435 32.8927 162.709 32.1593 162.181 31.206C161.668 30.2527 161.411 29.138 161.411 27.862ZM187.051 27.664C187.051 28.016 187.029 28.3827 186.985 28.764H178.471C178.53 29.5267 178.772 30.1133 179.197 30.524C179.637 30.92 180.173 31.118 180.803 31.118C181.742 31.118 182.395 30.722 182.761 29.93H186.765C186.56 30.7367 186.186 31.4627 185.643 32.108C185.115 32.7533 184.448 33.2593 183.641 33.626C182.835 33.9927 181.933 34.176 180.935 34.176C179.733 34.176 178.662 33.9193 177.723 33.406C176.785 32.8927 176.051 32.1593 175.523 31.206C174.995 30.2527 174.731 29.138 174.731 27.862C174.731 26.586 174.988 25.4713 175.501 24.518C176.029 23.5647 176.763 22.8313 177.701 22.318C178.64 21.8047 179.718 21.548 180.935 21.548C182.123 21.548 183.179 21.7973 184.103 22.296C185.027 22.7947 185.746 23.506 186.259 24.43C186.787 25.354 187.051 26.432 187.051 27.664ZM183.201 26.674C183.201 26.0287 182.981 25.5153 182.541 25.134C182.101 24.7527 181.551 24.562 180.891 24.562C180.261 24.562 179.725 24.7453 179.285 25.112C178.86 25.4787 178.596 25.9993 178.493 26.674H183.201Z" fill="white"/>
<mask id="mask0_274_3409" style="mask-type:alpha" maskUnits="userSpaceOnUse" x="0" y="0" width="34" height="53">
<path d="M0 52.7275L7.21813 52.7275C21.7783 52.7275 33.5817 40.9242 33.5817 26.364L33.5817 16.7913C33.5817 7.51797 26.0642 0.000437154 16.7908 0.000436343C7.51752 0.000435533 3.95235e-06 7.51795 3.14165e-06 16.7913L0 52.7275Z" fill="#C4C4C4"/>
</mask>
<g mask="url(#mask0_274_3409)">
<rect x="-28.9492" y="-34.0449" width="77.1993" height="115.799" fill="url(#paint0_linear_274_3409)"/>
</g>
<mask id="mask1_274_3409" style="mask-type:alpha" maskUnits="userSpaceOnUse" x="0" y="14" width="43" height="39">
<path d="M0 52.7275L23.9704 52.7275C34.4801 52.7275 43 44.2077 43 33.6979C43 23.1882 34.4801 14.6683 23.9704 14.6683L21.5 14.6683C9.62588 14.6683 2.48572e-06 24.2942 1.44766e-06 36.1683L0 52.7275Z" fill="#C4C4C4"/>
</mask>
<g mask="url(#mask1_274_3409)">
<rect x="-64.6934" y="-2.16211" width="107.693" height="71.7953" fill="url(#paint1_linear_274_3409)"/>
</g>
<defs>
<linearGradient id="paint0_linear_274_3409" x1="9.65042" y1="-34.0449" x2="9.65042" y2="81.754" gradientUnits="userSpaceOnUse">
<stop stop-color="#0038FF"/>
<stop offset="1" stop-color="#2051FF" stop-opacity="0"/>
</linearGradient>
<linearGradient id="paint1_linear_274_3409" x1="-10.8469" y1="-2.16211" x2="-10.8469" y2="69.6332" gradientUnits="userSpaceOnUse">
<stop stop-color="#0038FF"/>
<stop offset="1" stop-color="#2051FF" stop-opacity="0"/>
</linearGradient>
</defs>
</svg>
