<svg width="96" height="16" viewBox="0 0 96 16" fill="none" xmlns="http://www.w3.org/2000/svg">
<path d="M88 0L89.9138 5.36584L95.6085 5.52786L91.0966 9.00616L92.7023 14.4721L88 11.256L83.2977 14.4721L84.9034 9.00616L80.3915 5.52786L86.0862 5.36584L88 0Z" fill="#E6EB0E"/>
<path d="M48 0L49.9138 5.36584L55.6085 5.52786L51.0966 9.00616L52.7023 14.4721L48 11.256L43.2977 14.4721L44.9034 9.00616L40.3915 5.52786L46.0862 5.36584L48 0Z" fill="#E6EB0E"/>
<path d="M68 0L69.9138 5.36584L75.6085 5.52786L71.0966 9.00616L72.7023 14.4721L68 11.256L63.2977 14.4721L64.9034 9.00616L60.3915 5.52786L66.0862 5.36584L68 0Z" fill="#E6EB0E"/>
<path d="M28 0L29.9138 5.36584L35.6085 5.52786L31.0966 9.00616L32.7023 14.4721L28 11.256L23.2977 14.4721L24.9034 9.00616L20.3915 5.52786L26.0862 5.36584L28 0Z" fill="#E6EB0E"/>
<path d="M8 0L9.91383 5.36584L15.6085 5.52786L11.0966 9.00616L12.7023 14.4721L8 11.256L3.29772 14.4721L4.90336 9.00616L0.391548 5.52786L6.08617 5.36584L8 0Z" fill="#E6EB0E"/>
</svg>
