<svg width="22" height="13" viewBox="0 0 22 13" fill="none" xmlns="http://www.w3.org/2000/svg">
<path d="M21.9517 6.2975C21.92 6.2325 21.1444 4.695 19.4123 3.14667C17.8052 1.71167 15.0439 0 11 0C6.95605 0 4.19483 1.71167 2.58769 3.14667C0.855637 4.695 0.0800344 6.23 0.0483391 6.2975C0.0164689 6.3615 0 6.43078 0 6.50083C0 6.57089 0.0164689 6.64016 0.0483391 6.70417C0.0800344 6.76833 0.855637 8.30583 2.58769 9.85417C4.19483 11.2892 6.95605 13 11 13C15.0439 13 17.8052 11.2892 19.4123 9.85417C21.1444 8.30583 21.92 6.77083 21.9517 6.70417C21.9835 6.64016 22 6.57089 22 6.50083C22 6.43078 21.9835 6.3615 21.9517 6.2975ZM11 12C8.07471 12 5.52044 11.0483 3.40711 9.1725C2.5212 8.38546 1.77154 7.48472 1.18284 6.5C1.77137 5.51544 2.52106 4.61495 3.40711 3.82833C5.52044 1.95167 8.07471 1 11 1C13.9253 1 16.4796 1.95167 18.5929 3.82833C19.4789 4.61495 20.2286 5.51544 20.8172 6.5C20.2233 7.5175 17.2458 12 11 12ZM11 2.66667C10.1519 2.66667 9.3228 2.89149 8.61761 3.3127C7.91242 3.73391 7.36279 4.3326 7.03823 5.03305C6.71367 5.7335 6.62875 6.50425 6.79421 7.24785C6.95967 7.99144 7.36808 8.67448 7.96779 9.21058C8.56751 9.74668 9.33159 10.1118 10.1634 10.2597C10.9952 10.4076 11.8575 10.3317 12.641 10.0415C13.4246 9.7514 14.0943 9.26007 14.5655 8.62969C15.0367 7.9993 15.2882 7.25816 15.2882 6.5C15.2867 5.48374 14.8344 4.50949 14.0306 3.79089C13.2267 3.07228 12.1368 2.66799 11 2.66667ZM11 9.33333C10.3731 9.33333 9.76033 9.16716 9.2391 8.85583C8.71788 8.5445 8.31163 8.10199 8.07174 7.58427C7.83184 7.06655 7.76907 6.49686 7.89137 5.94724C8.01367 5.39763 8.31554 4.89278 8.7588 4.49653C9.20207 4.10028 9.76683 3.83043 10.3817 3.72111C10.9965 3.61178 11.6338 3.66789 12.2129 3.88234C12.7921 4.09679 13.2871 4.45995 13.6354 4.92588C13.9836 5.39182 14.1695 5.93962 14.1695 6.5C14.1695 7.25145 13.8356 7.97212 13.2412 8.50347C12.6468 9.03482 11.8406 9.33333 11 9.33333Z" fill="#1F1F1F"/>
</svg>
